<svg width="1728" height="731" viewBox="0 0 1728 731" fill="none" xmlns="http://www.w3.org/2000/svg">
<path d="M-33 373.5C92.6667 218.667 463.4 -27.9 941 224.5C1418.6 476.9 1827 181.333 1971.5 2" stroke="url(#paint0_linear_236_224)" stroke-width="4"/>
<path d="M-1 729C132.333 574.5 445.8 256 937 502C1551 809.5 1832.5 699.5 2022 409.5" stroke="url(#paint1_linear_236_224)" stroke-width="4"/>
<path d="M-30.5674 400.526C95.6821 245.718 462.062 -6.3175 940.696 245.596C1428.67 502.185 1827.42 220.725 1975.34 32.9788" stroke="url(#paint2_linear_236_224)" stroke-width="4"/>
<path d="M-28.1924 426.91C98.6261 272.127 460.756 14.7532 940.399 266.192C1438.49 526.87 1827.83 259.183 1979.09 63.2229" stroke="url(#paint3_linear_236_224)" stroke-width="4"/>
<path d="M-25.875 452.654C101.499 297.895 459.481 35.3121 940.109 286.287C1448.08 550.955 1828.22 296.706 1982.74 92.7324" stroke="url(#paint4_linear_236_224)" stroke-width="4"/>
<path d="M-23.6152 477.757C104.3 323.022 458.239 55.3593 939.827 305.882C1457.43 574.441 1828.61 333.296 1986.31 121.507" stroke="url(#paint5_linear_236_224)" stroke-width="4"/>
<path d="M-21.4136 502.219C107.029 347.507 457.027 74.8944 939.552 324.977C1466.54 597.328 1828.99 368.951 1989.78 149.547" stroke="url(#paint6_linear_236_224)" stroke-width="4"/>
<path d="M-19.2693 526.04C109.687 371.35 455.848 93.9177 939.284 343.572C1475.41 619.614 1829.36 403.672 1993.17 176.853" stroke="url(#paint7_linear_236_224)" stroke-width="4"/>
<path d="M-17.1826 549.22C112.274 394.552 454.701 112.429 939.023 361.666C1484.04 641.301 1829.72 437.458 1996.46 203.424" stroke="url(#paint8_linear_236_224)" stroke-width="4"/>
<path d="M-15.1538 571.76C114.788 417.112 453.585 130.429 938.769 379.26C1492.44 662.388 1830.07 470.311 1999.66 229.26" stroke="url(#paint9_linear_236_224)" stroke-width="4"/>
<path d="M-13.1826 593.658C117.232 439.031 452.501 147.917 938.523 396.353C1500.59 682.876 1830.41 502.229 2002.77 254.361" stroke="url(#paint10_linear_236_224)" stroke-width="4"/>
<path d="M-11.2693 614.915C119.604 460.308 451.448 164.893 938.284 412.947C1508.51 702.764 1830.73 533.213 2005.79 278.728" stroke="url(#paint11_linear_236_224)" stroke-width="4"/>
<path d="M-9.41357 635.532C121.904 480.944 450.427 181.357 938.052 429.04C1516.19 722.053 1831.05 563.263 2008.72 302.36" stroke="url(#paint12_linear_236_224)" stroke-width="4"/>
<path d="M-7.61523 655.507C124.133 500.938 449.439 197.309 937.827 444.632C1523.63 740.741 1831.36 592.379 2011.56 325.257" stroke="url(#paint13_linear_236_224)" stroke-width="4"/>
<path d="M-5.875 674.842C126.29 520.291 448.481 212.75 937.609 459.725C1530.83 758.83 1831.66 620.561 2014.31 347.42" stroke="url(#paint14_linear_236_224)" stroke-width="4"/>
<path d="M-4.19238 693.535C128.376 539.002 447.556 227.678 937.399 474.317C1537.79 776.32 1831.95 647.808 2016.96 368.848" stroke="url(#paint15_linear_236_224)" stroke-width="4"/>
<path d="M-2.56738 711.588C130.39 557.072 446.662 242.095 937.196 488.408C1544.52 793.21 1832.23 674.121 2019.53 389.541" stroke="url(#paint16_linear_236_224)" stroke-width="4"/>
<defs>
<linearGradient id="paint0_linear_236_224" x1="-33" y1="187.75" x2="1971.5" y2="187.75" gradientUnits="userSpaceOnUse">
<stop stop-color="#FF00BF"/>
<stop offset="0.31" stop-color="#59FF00"/>
<stop offset="0.575" stop-color="#0095FF"/>
<stop offset="0.86" stop-color="#D0FF00"/>
<stop offset="1" stop-color="#FF0000"/>
</linearGradient>
<linearGradient id="paint1_linear_236_224" x1="-1" y1="569.25" x2="2022" y2="569.25" gradientUnits="userSpaceOnUse">
<stop stop-color="#FF00BF"/>
<stop offset="0.31" stop-color="#59FF00"/>
<stop offset="0.575" stop-color="#0095FF"/>
<stop offset="0.86" stop-color="#D0FF00"/>
<stop offset="1" stop-color="#FF0000"/>
</linearGradient>
<linearGradient id="paint2_linear_236_224" x1="-30.5674" y1="216.752" x2="1975.34" y2="216.752" gradientUnits="userSpaceOnUse">
<stop stop-color="#FF00BF"/>
<stop offset="0.31" stop-color="#59FF00"/>
<stop offset="0.575" stop-color="#0095FF"/>
<stop offset="0.86" stop-color="#D0FF00"/>
<stop offset="1" stop-color="#FF0000"/>
</linearGradient>
<linearGradient id="paint3_linear_236_224" x1="-28.1924" y1="245.067" x2="1979.09" y2="245.067" gradientUnits="userSpaceOnUse">
<stop stop-color="#FF00BF"/>
<stop offset="0.31" stop-color="#59FF00"/>
<stop offset="0.575" stop-color="#0095FF"/>
<stop offset="0.86" stop-color="#D0FF00"/>
<stop offset="1" stop-color="#FF0000"/>
</linearGradient>
<linearGradient id="paint4_linear_236_224" x1="-25.875" y1="272.693" x2="1982.74" y2="272.693" gradientUnits="userSpaceOnUse">
<stop stop-color="#FF00BF"/>
<stop offset="0.31" stop-color="#59FF00"/>
<stop offset="0.575" stop-color="#0095FF"/>
<stop offset="0.86" stop-color="#D0FF00"/>
<stop offset="1" stop-color="#FF0000"/>
</linearGradient>
<linearGradient id="paint5_linear_236_224" x1="-23.6152" y1="299.632" x2="1986.31" y2="299.632" gradientUnits="userSpaceOnUse">
<stop stop-color="#FF00BF"/>
<stop offset="0.31" stop-color="#59FF00"/>
<stop offset="0.575" stop-color="#0095FF"/>
<stop offset="0.86" stop-color="#D0FF00"/>
<stop offset="1" stop-color="#FF0000"/>
</linearGradient>
<linearGradient id="paint6_linear_236_224" x1="-21.4136" y1="325.883" x2="1989.78" y2="325.883" gradientUnits="userSpaceOnUse">
<stop stop-color="#FF00BF"/>
<stop offset="0.31" stop-color="#59FF00"/>
<stop offset="0.575" stop-color="#0095FF"/>
<stop offset="0.86" stop-color="#D0FF00"/>
<stop offset="1" stop-color="#FF0000"/>
</linearGradient>
<linearGradient id="paint7_linear_236_224" x1="-19.2693" y1="351.447" x2="1993.17" y2="351.447" gradientUnits="userSpaceOnUse">
<stop stop-color="#FF00BF"/>
<stop offset="0.31" stop-color="#59FF00"/>
<stop offset="0.575" stop-color="#0095FF"/>
<stop offset="0.86" stop-color="#D0FF00"/>
<stop offset="1" stop-color="#FF0000"/>
</linearGradient>
<linearGradient id="paint8_linear_236_224" x1="-17.1826" y1="376.322" x2="1996.46" y2="376.322" gradientUnits="userSpaceOnUse">
<stop stop-color="#FF00BF"/>
<stop offset="0.31" stop-color="#59FF00"/>
<stop offset="0.575" stop-color="#0095FF"/>
<stop offset="0.86" stop-color="#D0FF00"/>
<stop offset="1" stop-color="#FF0000"/>
</linearGradient>
<linearGradient id="paint9_linear_236_224" x1="-15.1538" y1="400.51" x2="1999.66" y2="400.51" gradientUnits="userSpaceOnUse">
<stop stop-color="#FF00BF"/>
<stop offset="0.31" stop-color="#59FF00"/>
<stop offset="0.575" stop-color="#0095FF"/>
<stop offset="0.86" stop-color="#D0FF00"/>
<stop offset="1" stop-color="#FF0000"/>
</linearGradient>
<linearGradient id="paint10_linear_236_224" x1="-13.1826" y1="424.01" x2="2002.77" y2="424.01" gradientUnits="userSpaceOnUse">
<stop stop-color="#FF00BF"/>
<stop offset="0.31" stop-color="#59FF00"/>
<stop offset="0.575" stop-color="#0095FF"/>
<stop offset="0.86" stop-color="#D0FF00"/>
<stop offset="1" stop-color="#FF0000"/>
</linearGradient>
<linearGradient id="paint11_linear_236_224" x1="-11.2693" y1="446.822" x2="2005.79" y2="446.822" gradientUnits="userSpaceOnUse">
<stop stop-color="#FF00BF"/>
<stop offset="0.31" stop-color="#59FF00"/>
<stop offset="0.575" stop-color="#0095FF"/>
<stop offset="0.86" stop-color="#D0FF00"/>
<stop offset="1" stop-color="#FF0000"/>
</linearGradient>
<linearGradient id="paint12_linear_236_224" x1="-9.41357" y1="468.946" x2="2008.72" y2="468.946" gradientUnits="userSpaceOnUse">
<stop stop-color="#FF00BF"/>
<stop offset="0.31" stop-color="#59FF00"/>
<stop offset="0.575" stop-color="#0095FF"/>
<stop offset="0.86" stop-color="#D0FF00"/>
<stop offset="1" stop-color="#FF0000"/>
</linearGradient>
<linearGradient id="paint13_linear_236_224" x1="-7.61523" y1="490.382" x2="2011.56" y2="490.382" gradientUnits="userSpaceOnUse">
<stop stop-color="#FF00BF"/>
<stop offset="0.31" stop-color="#59FF00"/>
<stop offset="0.575" stop-color="#0095FF"/>
<stop offset="0.86" stop-color="#D0FF00"/>
<stop offset="1" stop-color="#FF0000"/>
</linearGradient>
<linearGradient id="paint14_linear_236_224" x1="-5.875" y1="511.131" x2="2014.31" y2="511.131" gradientUnits="userSpaceOnUse">
<stop stop-color="#FF00BF"/>
<stop offset="0.31" stop-color="#59FF00"/>
<stop offset="0.575" stop-color="#0095FF"/>
<stop offset="0.86" stop-color="#D0FF00"/>
<stop offset="1" stop-color="#FF0000"/>
</linearGradient>
<linearGradient id="paint15_linear_236_224" x1="-4.19238" y1="531.192" x2="2016.96" y2="531.192" gradientUnits="userSpaceOnUse">
<stop stop-color="#FF00BF"/>
<stop offset="0.31" stop-color="#59FF00"/>
<stop offset="0.575" stop-color="#0095FF"/>
<stop offset="0.86" stop-color="#D0FF00"/>
<stop offset="1" stop-color="#FF0000"/>
</linearGradient>
<linearGradient id="paint16_linear_236_224" x1="-2.56738" y1="550.565" x2="2019.53" y2="550.565" gradientUnits="userSpaceOnUse">
<stop stop-color="#FF00BF"/>
<stop offset="0.31" stop-color="#59FF00"/>
<stop offset="0.575" stop-color="#0095FF"/>
<stop offset="0.86" stop-color="#D0FF00"/>
<stop offset="1" stop-color="#FF0000"/>
</linearGradient>
</defs>
</svg>
