<svg width="115" height="88" viewBox="0 0 115 88" fill="none" xmlns="http://www.w3.org/2000/svg">
<path d="M97.5007 7.40055C110.489 26.4963 116.903 48.0357 114.505 72.8326C114.495 72.9375 114.44 73.0338 114.354 73.0971C104.519 80.3191 94.9894 84.702 85.5939 87.6086C85.5208 87.6308 85.4425 87.6296 85.3701 87.6051C85.2976 87.5806 85.2347 87.5341 85.19 87.4721C83.0194 84.4519 81.0471 81.2678 79.3192 77.9242C79.2201 77.7272 79.3106 77.4901 79.5148 77.4124C82.6471 76.2323 85.6256 74.8178 88.4905 73.1431C88.7162 73.0108 88.7305 72.6874 88.5221 72.5321C87.914 72.0808 87.3117 71.6064 86.7353 71.132C86.6275 71.0443 86.4823 71.0271 86.3601 71.086C67.7603 79.6751 47.3852 79.6751 28.5655 71.086C28.4433 71.0314 28.2982 71.0501 28.1932 71.1363C27.6182 71.6107 27.0145 72.0808 26.4122 72.5321C26.2037 72.6874 26.221 73.0108 26.4481 73.1431C29.313 74.7861 32.2915 76.2323 35.4195 77.4182C35.6222 77.4958 35.7185 77.7272 35.6179 77.9242C33.9274 81.2721 31.9551 84.4562 29.7443 87.4764C29.648 87.5985 29.4898 87.6546 29.3403 87.6086C19.9894 84.702 10.4602 80.3191 0.624884 73.0971C0.542947 73.0338 0.48401 72.9332 0.475385 72.8283C-1.52849 51.3794 2.55544 29.6616 17.4637 7.39624C17.4997 7.3373 17.5543 7.2913 17.6175 7.26399C24.9531 3.89737 32.8119 1.42056 41.0258 0.0060598C41.1753 -0.0169402 41.3248 0.0520597 41.4024 0.18431C42.4173 1.98118 43.5773 4.28549 44.3622 6.16861C53.0202 4.84611 61.8134 4.84611 70.6526 6.16861C71.4375 4.32574 72.5573 1.98118 73.5678 0.18431C73.6038 0.118702 73.6596 0.0661405 73.7272 0.0341295C73.7949 0.00211847 73.8709 -0.00770561 73.9444 0.0060598C82.1626 1.42487 90.0214 3.90168 97.3512 7.26399C97.4159 7.2913 97.4691 7.3373 97.5007 7.40055ZM48.7638 48.1824C48.8544 41.8416 44.2314 36.5947 38.4282 36.5947C32.6725 36.5947 28.094 41.7956 28.094 48.1824C28.094 54.5677 32.763 59.7686 38.4282 59.7686C44.1854 59.7686 48.7638 54.5677 48.7638 48.1824ZM86.9754 48.1824C87.0659 41.8416 82.4429 36.5947 76.6412 36.5947C70.884 36.5947 66.3056 41.7956 66.3056 48.1824C66.3056 54.5677 70.9746 59.7686 76.6412 59.7686C82.4429 59.7686 86.9754 54.5677 86.9754 48.1824Z" fill="#5865F2"/>
</svg>
