<svg width="43" height="41" viewBox="0 0 43 41" fill="none" xmlns="http://www.w3.org/2000/svg">
<g clip-path="url(#clip0_10_154)">
<path d="M43 20.3273C43 9.09963 33.3754 0 21.5 0C9.62461 0 0 9.09963 0 20.3273C0 30.4742 7.85758 38.8838 18.1423 40.4092V26.2079H12.6875V20.3273H18.1423V15.8497C18.1423 10.7592 21.3463 7.94193 26.2594 7.94193C28.6152 7.94193 31.0776 8.34292 31.0776 8.34292V13.3437H28.3682C25.6942 13.3437 24.8695 14.9143 24.8695 16.5183V20.3273H30.8307L29.8766 26.2079H24.8695V40.4092C35.1424 38.8838 43 30.4742 43 20.3273Z" fill="#1877F2"/>
<path d="M29.864 26.2079L30.8189 20.3272H24.8577V16.5183C24.8577 14.9143 25.6942 13.3437 28.3565 13.3437H31.0658V8.34288C31.0658 8.34288 28.6034 7.94189 26.2477 7.94189C21.3354 7.94189 18.1306 10.7599 18.1306 15.8497V20.3272H12.6758V26.2079H18.1306V40.4091C19.2266 40.5759 20.3452 40.6545 21.4883 40.6545C22.6313 40.6545 23.75 40.5656 24.846 40.4091V26.2079H29.864Z" fill="white"/>
</g>
<defs>
<clipPath id="clip0_10_154">
<rect width="43" height="40.6545" fill="white"/>
</clipPath>
</defs>
</svg>
