<svg width="1148" height="140" viewBox="0 0 1148 140" fill="none" xmlns="http://www.w3.org/2000/svg">
<path d="M310.667 15.5C310.667 22.8638 316.636 28.8333 324 28.8333C331.364 28.8333 337.333 22.8638 337.333 15.5C337.333 8.1362 331.364 2.16667 324 2.16667C316.636 2.16667 310.667 8.1362 310.667 15.5ZM9 0L0.774235 27.6707L28.8507 20.9591L9 0ZM10.4413 15.5274C11.4062 18.8491 12.4224 22.0952 13.4879 25.2667L18.2275 23.6744C17.1844 20.5695 16.1889 17.3893 15.2428 14.1326L10.4413 15.5274ZM16.9585 34.8903C18.2104 38.1309 19.517 41.2868 20.8762 44.3593L25.4487 42.3366C24.1224 39.3383 22.8462 36.2561 21.6226 33.0885L16.9585 34.8903ZM25.2341 53.5764C26.8089 56.6967 28.4416 59.7219 30.1295 62.6539L34.4627 60.1592C32.8212 57.3079 31.2319 54.3633 29.6978 51.3236L25.2341 53.5764ZM35.4501 71.3151C37.3698 74.2457 39.3491 77.0714 41.3844 79.7941L45.3892 76.8005C43.4164 74.1614 41.4964 71.4204 39.6326 68.5752L35.4501 71.3151ZM47.7908 87.8147C50.0356 90.4448 52.3376 92.9642 54.6927 95.3751L58.2693 91.8812C55.9929 89.5508 53.7665 87.1142 51.5939 84.5687L47.7908 87.8147ZM62.173 102.516C64.7616 104.819 67.4041 107.003 70.0956 109.073L73.1436 105.109C70.5463 103.112 67.9956 101.003 65.4959 98.7801L62.173 102.516ZM78.4518 115.032C81.3476 116.943 84.2906 118.732 87.2756 120.403L89.7178 116.04C86.8382 114.428 83.9991 112.702 81.2056 110.858L78.4518 115.032ZM96.4386 125.104C99.558 126.565 102.715 127.907 105.903 129.132L107.696 124.464C104.617 123.281 101.57 121.986 98.5592 120.576L96.4386 125.104ZM115.634 132.485C118.923 133.492 122.238 134.383 125.573 135.163L126.71 130.294C123.483 129.54 120.277 128.678 117.098 127.704L115.634 132.485ZM135.657 137.171C139.04 137.73 142.438 138.181 145.844 138.525L146.347 133.551C143.044 133.217 139.75 132.78 136.473 132.238L135.657 137.171ZM156.092 139.246C159.514 139.382 162.939 139.416 166.36 139.352L166.266 134.352C162.941 134.415 159.614 134.382 156.292 134.25L156.092 139.246ZM176.613 138.864C180.025 138.605 183.429 138.25 186.817 137.804L186.164 132.847C182.865 133.281 179.554 133.626 176.235 133.878L176.613 138.864ZM196.947 136.191C200.313 135.561 203.658 134.843 206.976 134.04L205.8 129.18C202.566 129.963 199.307 130.663 196.028 131.276L196.947 136.191ZM216.875 131.368C220.156 130.391 223.404 129.33 226.613 128.19L224.939 123.479C221.811 124.59 218.645 125.624 215.447 126.577L216.875 131.368ZM236.188 124.506C239.361 123.19 242.487 121.796 245.56 120.327L243.404 115.815C240.41 117.246 237.364 118.605 234.272 119.888L236.188 124.506ZM254.693 115.659C257.709 114.013 260.664 112.294 263.55 110.505L260.917 106.255C258.109 107.995 255.234 109.667 252.298 111.269L254.693 115.659ZM272.12 104.85C274.948 102.863 277.697 100.806 280.358 98.6843L277.241 94.7751C274.66 96.8328 271.993 98.8286 269.246 100.758L272.12 104.85ZM288.193 92.0151C290.755 89.6862 293.215 87.2913 295.566 84.8351L291.953 81.3781C289.685 83.7482 287.308 86.0624 284.83 88.3156L288.193 92.0151ZM302.404 77.1367C304.608 74.4555 306.684 71.7127 308.623 68.9136L304.512 66.0669C302.654 68.7492 300.661 71.3826 298.541 73.9614L302.404 77.1367ZM314.134 60.1424C315.852 57.1059 317.409 54.0136 318.794 50.8716L314.218 48.8552C312.903 51.8393 311.421 54.783 309.782 57.6801L314.134 60.1424ZM322.467 41.1516C323.515 37.832 324.37 34.4672 325.018 31.0642L320.107 30.1285C319.496 33.3328 318.69 36.5072 317.699 39.6454L322.467 41.1516ZM326.333 20.7317C326.444 18.9948 326.5 17.2506 326.5 15.5H321.5C321.5 17.1433 321.447 18.781 321.343 20.4124L326.333 20.7317Z" fill="url(#paint0_linear_774_825)"/>
<path d="M837.333 15.5C837.333 22.8638 831.364 28.8333 824 28.8333C816.636 28.8333 810.667 22.8638 810.667 15.5C810.667 8.1362 816.636 2.16667 824 2.16667C831.364 2.16667 837.333 8.1362 837.333 15.5ZM1139 0L1147.23 27.6707L1119.15 20.9591L1139 0ZM1137.56 15.5274C1136.59 18.8491 1135.58 22.0952 1134.51 25.2667L1129.77 23.6744C1130.82 20.5695 1131.81 17.3893 1132.76 14.1326L1137.56 15.5274ZM1131.04 34.8903C1129.79 38.1309 1128.48 41.2868 1127.12 44.3593L1122.55 42.3366C1123.88 39.3383 1125.15 36.2561 1126.38 33.0885L1131.04 34.8903ZM1122.77 53.5764C1121.19 56.6967 1119.56 59.7219 1117.87 62.6539L1113.54 60.1592C1115.18 57.3079 1116.77 54.3633 1118.3 51.3236L1122.77 53.5764ZM1112.55 71.3151C1110.63 74.2457 1108.65 77.0714 1106.62 79.7941L1102.61 76.8005C1104.58 74.1614 1106.5 71.4204 1108.37 68.5752L1112.55 71.3151ZM1100.21 87.8147C1097.96 90.4448 1095.66 92.9642 1093.31 95.3751L1089.73 91.8812C1092.01 89.5508 1094.23 87.1142 1096.41 84.5687L1100.21 87.8147ZM1085.83 102.516C1083.24 104.819 1080.6 107.003 1077.9 109.073L1074.86 105.109C1077.45 103.112 1080 101.003 1082.5 98.7801L1085.83 102.516ZM1069.55 115.032C1066.65 116.943 1063.71 118.732 1060.72 120.403L1058.28 116.04C1061.16 114.428 1064 112.702 1066.79 110.858L1069.55 115.032ZM1051.56 125.104C1048.44 126.565 1045.29 127.907 1042.1 129.132L1040.3 124.464C1043.38 123.281 1046.43 121.986 1049.44 120.576L1051.56 125.104ZM1032.37 132.485C1029.08 133.492 1025.76 134.383 1022.43 135.163L1021.29 130.294C1024.52 129.54 1027.72 128.678 1030.9 127.704L1032.37 132.485ZM1012.34 137.171C1008.96 137.73 1005.56 138.181 1002.16 138.525L1001.65 133.551C1004.96 133.217 1008.25 132.78 1011.53 132.238L1012.34 137.171ZM991.908 139.246C988.486 139.382 985.061 139.416 981.64 139.352L981.734 134.352C985.059 134.415 988.386 134.382 991.708 134.25L991.908 139.246ZM971.387 138.864C967.975 138.605 964.571 138.25 961.183 137.804L961.836 132.847C965.135 133.281 968.446 133.626 971.765 133.878L971.387 138.864ZM951.053 136.191C947.687 135.561 944.342 134.843 941.024 134.04L942.2 129.18C945.434 129.963 948.693 130.663 951.972 131.276L951.053 136.191ZM931.125 131.368C927.844 130.391 924.596 129.33 921.387 128.19L923.061 123.479C926.189 124.59 929.355 125.624 932.553 126.577L931.125 131.368ZM911.812 124.506C908.639 123.19 905.513 121.796 902.44 120.327L904.596 115.815C907.59 117.246 910.636 118.605 913.728 119.888L911.812 124.506ZM893.307 115.659C890.291 114.013 887.336 112.294 884.45 110.505L887.083 106.255C889.891 107.995 892.766 109.667 895.702 111.269L893.307 115.659ZM875.88 104.85C873.052 102.863 870.303 100.806 867.642 98.6843L870.759 94.7751C873.34 96.8328 876.007 98.8286 878.754 100.758L875.88 104.85ZM859.807 92.0151C857.245 89.6862 854.785 87.2913 852.434 84.8351L856.047 81.3781C858.315 83.7482 860.692 86.0624 863.17 88.3156L859.807 92.0151ZM845.596 77.1367C843.392 74.4555 841.316 71.7127 839.377 68.9136L843.488 66.0669C845.346 68.7492 847.339 71.3826 849.459 73.9614L845.596 77.1367ZM833.866 60.1424C832.148 57.1059 830.591 54.0136 829.206 50.8716L833.782 48.8552C835.097 51.8393 836.579 54.783 838.218 57.6801L833.866 60.1424ZM825.533 41.1516C824.485 37.832 823.63 34.4672 822.982 31.0642L827.893 30.1285C828.504 33.3328 829.31 36.5072 830.301 39.6454L825.533 41.1516ZM821.667 20.7317C821.556 18.9948 821.5 17.2506 821.5 15.5H826.5C826.5 17.1433 826.553 18.781 826.657 20.4124L821.667 20.7317Z" fill="url(#paint1_linear_774_825)"/>
<defs>
<linearGradient id="paint0_linear_774_825" x1="47.6591" y1="67.3196" x2="319.962" y2="121.335" gradientUnits="userSpaceOnUse">
<stop stop-color="#9146FF"/>
<stop offset="1" stop-color="#FF00BF"/>
</linearGradient>
<linearGradient id="paint1_linear_774_825" x1="1100.34" y1="67.3196" x2="828.038" y2="121.335" gradientUnits="userSpaceOnUse">
<stop stop-color="#9146FF"/>
<stop offset="1" stop-color="#FF00BF"/>
</linearGradient>
</defs>
</svg>
