<svg xmlns="http://www.w3.org/2000/svg" viewBox="0 0 38.51 38.5" id="vimeo">
  <g style="isolation:isolate">
    <g>
      <g>
        <g>
          <path fill="#1c96e8" d="M38.51,19.25c0,.43-.01.85-.05,1.27-.31,4.8-2.4,9.12-5.6,12.33-2.25,2.24-5.04,3.94-8.16,4.86-1.72.51-3.55.79-5.44.79C8.67,38.5,0,29.84,0,19.25c0-5.3,2.17-10.11,5.66-13.6C9.15,2.17,13.96,0,19.26,0s10.11,2.17,13.6,5.65c2.57,2.58,4.42,5.87,5.22,9.55.19.9.33,1.83.38,2.78.04.42.05.84.05,1.27Z"></path>
          <path fill="#1c96e8" d="M38.46,17.98v2.54c-.31,4.8-2.4,9.12-5.6,12.33-2.25,2.24-5.04,3.94-8.16,4.86-2.53-2.53-5.06-5.06-7.6-7.6-.04-.04-.08-.07-.12-.11-.52-.37-.95-1.06-1.35-1.9-.55-1.12-1.06-2.51-1.67-3.8-.29-.62-.6-1.21-.94-1.75-2.2-2.18-4.37-4.38-6.57-6.56l-.15-.15-.57-.73c-.24-.3-.19-.74.1-.99.12-.11.28-.25.47-.41,3.05-2.65,6.76-5.68,8.42-5.68.12,0,.23,0,.33.01.07.01.15.01.22.02.22.03.42.07.59.13.31.11.56.26.78.47.05.06.11.11.16.17,1.93,1.92,4.2,4.16,4.89,4.85-.12-.14-.14-.34-.08-.52,1.36-3.73,3.81-5.57,7.27-5.46,1.22.03,2.18.41,2.84,1.12,2.11,2.13,4.24,4.26,6.36,6.38.19.9.33,1.83.38,2.78Z" style="mix-blend-mode:multiply"></path>
          <path fill="#fff" d="M31.72,8.82c-.66-.71-1.62-1.09-2.84-1.12-3.46-.11-5.91,1.73-7.27,5.46-.06.18-.04.38.08.52,0,.02.02.04.03.05.15.15.36.22.56.16.39-.11.78-.16,1.15-.16.51,0,1.18.09,1.51.53.26.34.29.85.11,1.51-.16.56-.98,2.06-1.98,3.64-1.23,1.93-1.91,2.79-2.11,2.79-.64,0-2.98-10.37-3.05-10.6-.35-1.25-.61-2.18-1.11-2.77-.05-.06-.11-.11-.16-.17-.04-.03-.08-.06-.12-.09-.07-.06-.14-.11-.21-.16-.14-.09-.28-.16-.45-.22-.17-.06-.37-.1-.59-.13-.07,0-.15,0-.22-.02-.1-.01-.21-.01-.33-.01-1.66,0-5.37,3.03-8.42,5.68-.19.16-.35.3-.47.41-.29.25-.34.69-.1.99l.57.73.15.15c.24.18.58.19.84,0l.03-.02c.99-.7,1.92-1.37,2.62-1.4.77-.04,1.43,1.15,2.22,3.99.52,1.89,1.13,3.91,1.8,5.74.52,1.43,1.08,2.74,1.67,3.8.43.8.89,1.45,1.35,1.9.04.04.08.07.12.11.4.35.8.54,1.2.54,2.45,0,5.38-2.07,9.16-7,3.42-4.45,5.25-7.98,5.37-10.55.09-1.94-.29-3.38-1.11-4.28Z"></path>
        </g>
      </g>
    </g>
  </g>
</svg>
