<svg width="115" height="115" viewBox="0 0 115 115" fill="none" xmlns="http://www.w3.org/2000/svg">
<path d="M112.49 29.8209C111.828 27.3818 110.54 25.1583 108.753 23.3713C106.966 21.5843 104.742 20.296 102.303 19.6344C93.3728 17.196 57.4281 17.196 57.4281 17.196C57.4281 17.196 21.4816 17.2679 12.5494 19.7063C10.1103 20.3678 7.88677 21.6561 6.09976 23.4432C4.31275 25.2302 3.02446 27.4537 2.36289 29.8928C0 38.825 0 57.5 0 57.5C0 57.5 0 76.1749 2.43656 85.179C3.09813 87.6181 4.38643 89.8416 6.17344 91.6286C7.96045 93.4156 10.184 94.7039 12.623 95.3655C21.5535 97.8039 57.5 97.8039 57.5 97.8039C57.5 97.8039 93.4465 97.8039 102.379 95.3673C104.818 94.7057 107.041 93.4174 108.828 91.6304C110.615 89.8434 111.904 87.6199 112.565 85.1808C115 76.2485 115 57.5 115 57.5C115 57.5 114.928 38.825 112.49 29.8209Z" fill="#FF0000"/>
<path d="M45.9856 74.7716L75.8048 57.5001L45.9838 40.2285L45.9856 74.7716Z" fill="white"/>
</svg>
